<svg xmlns="http://www.w3.org/2000/svg" viewBox="0 0 32 32">
  <!-- Black circle background -->
  <circle cx="16" cy="16" r="16" fill="#000"/>
  <!-- Gold outer ring -->
  <circle cx="16" cy="16" r="13.5" fill="none" stroke="#d4a017" stroke-width="1.4"/>
  <!-- Sun starburst (upper area) -->
  <circle cx="17" cy="8.5" r="1.4" fill="#d4a017"/>
  <g stroke="#d4a017" stroke-width="0.75" stroke-linecap="round">
    <line x1="17" y1="5.8" x2="17" y2="6.8"/>
    <line x1="17" y1="10.2" x2="17" y2="11.2"/>
    <line x1="14.3" y1="8.5" x2="15.3" y2="8.5"/>
    <line x1="18.7" y1="8.5" x2="19.7" y2="8.5"/>
    <line x1="15.1" y1="6.4" x2="15.8" y2="7.1"/>
    <line x1="18.2" y1="9.9" x2="18.9" y2="10.6"/>
    <line x1="18.9" y1="6.4" x2="18.2" y2="7.1"/>
    <line x1="15.8" y1="9.9" x2="15.1" y2="10.6"/>
  </g>
  <!-- Wave (main shape — sweep up, curl right and down) -->
  <path d="M 7 22 C 5 15 12 11 17 13 C 22 15 22.5 21 18 23 C 14.5 24.5 11 23.5 8.5 21.5"
        fill="none" stroke="#d4a017" stroke-width="2.3" stroke-linecap="round" stroke-linejoin="round"/>
</svg>
